# Blender v2.72 (sub 0) OBJ File: ''
# www.blender.org
mtllib cube.mtl
o Cube
v 1.000000 -1.000000 -1.000000
v 1.000000 -1.000000 1.000000
v -1.000000 -1.000000 1.000000
v -1.000000 -1.000000 -1.000000
v 1.000000 1.000000 -0.999999
v 0.999999 1.000000 1.000001
v -1.000000 1.000000 1.000000
v -1.000000 1.000000 -1.000000
vt 0.749957 0.250043
vt 0.999913 0.250043
vt 0.999913 0.500000
vt 0.250043 0.500000
vt 0.250043 0.250043
vt 0.500000 0.250043
vt 0.749957 0.500000
vt 0.500000 0.500000
vt 0.500000 0.000087
vt 0.000087 0.500000
vt 0.500000 0.749957
vt 0.250043 0.749957
vt 0.250043 0.000087
vt 0.000087 0.250043
vn 0.000000 -1.000000 0.000000
vn 0.000000 1.000000 0.000000
vn 1.000000 -0.000000 0.000000
vn -0.000000 -0.000000 1.000000
vn -1.000000 -0.000000 -0.000000
vn 0.000000 0.000000 -1.000000
usemtl Material
s off
f 2/1/1 3/2/1 4/3/1
f 8/4/2 7/5/2 6/6/2
f 1/7/3 5/8/3 6/6/3
f 2/9/4 6/6/4 7/5/4
f 7/5/5 8/4/5 4/10/5
f 1/11/6 4/12/6 8/4/6
f 1/7/1 2/1/1 4/3/1
f 5/8/2 8/4/2 6/6/2
f 2/1/3 1/7/3 6/6/3
f 3/13/4 2/9/4 7/5/4
f 3/14/5 7/5/5 4/10/5
f 5/8/6 1/11/6 8/4/6
