# Blender v2.76 (sub 0) OBJ File: 'ao.blend'
# www.blender.org
mtllib ao.mtl
o ao_Cube
v 1.643466 -1.643466 -1.643466
v 1.643466 -1.643466 1.643466
v -1.643466 -1.643466 1.643466
v -1.643465 -1.643466 -1.643467
v 1.643467 1.643466 -1.643465
v 1.643465 1.643466 1.643467
v -1.643467 1.643466 1.643465
v -1.643466 1.643466 -1.643466
v 0.821733 -1.643466 -1.643466
v 0.000000 -1.643466 -1.643466
v -0.821733 -1.643466 -1.643466
v 0.821733 -1.643466 1.643466
v -0.000000 -1.643466 1.643466
v -0.821733 -1.643466 1.643466
v 0.821734 1.643466 -1.643465
v 0.000000 1.643466 -1.643466
v -0.821733 1.643466 -1.643466
v 0.821732 1.643466 1.643467
v -0.000001 1.643466 1.643466
v -0.821734 1.643466 1.643466
v 1.643466 -0.821733 -1.643466
v 1.643466 0.000000 -1.643466
v 1.643467 0.821733 -1.643465
v 1.643466 -0.821733 1.643466
v 1.643465 0.000000 1.643466
v 1.643465 0.821733 1.643467
v -1.643466 -0.821733 1.643466
v -1.643466 0.000000 1.643466
v -1.643466 0.821733 1.643465
v -1.643466 -0.821733 -1.643466
v -1.643466 0.000000 -1.643466
v -1.643466 0.821733 -1.643466
v 0.821733 -0.821733 -1.643466
v 0.821733 0.000000 -1.643466
v 0.821733 0.821733 -1.643465
v 0.000000 -0.821733 -1.643466
v 0.000000 0.000000 -1.643466
v 0.000000 0.821733 -1.643466
v -0.821733 -0.821733 -1.643466
v -0.821733 0.000000 -1.643466
v -0.821733 0.821733 -1.643466
v 0.821732 0.821733 1.643466
v 0.821733 0.000000 1.643466
v 0.821733 -0.821733 1.643466
v -0.000001 0.821733 1.643466
v -0.000000 0.000000 1.643466
v -0.000000 -0.821733 1.643466
v -0.821734 0.821733 1.643466
v -0.821733 0.000000 1.643466
v -0.821733 -0.821733 1.643466
v 1.643466 -1.643466 -0.821733
v 1.643466 -1.643466 0.000000
v 1.643466 -1.643466 0.821733
v -1.643466 -1.643466 0.821733
v -1.643466 -1.643466 -0.000000
v -1.643466 -1.643466 -0.821733
v 1.643466 1.643466 -0.821732
v 1.643466 1.643466 0.000001
v 1.643465 1.643466 0.821734
v -1.643466 1.643466 0.821733
v -1.643466 1.643466 -0.000000
v -1.643466 1.643466 -0.821733
v 0.821733 1.643466 -0.821732
v 0.821733 1.643466 0.000001
v 0.821732 1.643466 0.821734
v 0.000000 1.643466 -0.821733
v 1.643466 -1.643466 0.821733
v -0.000001 1.643466 0.821733
v -0.821733 1.643466 -0.821733
v -0.821733 1.643466 0.000000
v -0.821734 1.643466 0.821733
v 0.821733 -1.643466 0.821733
v 0.821733 -1.643466 -0.000000
v 0.821733 -1.643466 -0.821733
v 0.000000 -1.643466 0.821733
v 0.000000 -1.643466 -0.000000
v 0.000000 -1.643466 -0.821733
v -0.821733 -1.643466 0.821733
v -0.821733 -1.643466 -0.000000
v -0.821733 -1.643466 -0.821733
v -1.643466 -0.821733 0.821733
v -1.643466 -0.821733 -0.000000
v -1.643466 -0.821733 -0.821733
v -1.643466 0.000000 0.821733
v -1.643466 0.000000 -0.000000
v -1.643466 0.000000 -0.821733
v -1.643466 0.821733 0.821733
v -1.643466 0.821733 -0.000000
v -1.643466 0.821733 -0.821733
v 1.643466 -0.821733 -0.821733
v 1.643466 -0.821733 0.000000
v 1.643466 -0.821733 0.821733
v 1.643466 0.000000 -0.821733
v 1.643466 0.000000 0.000000
v 1.643466 0.000000 0.821733
v 1.643466 0.821733 -0.821732
v 1.643466 0.821733 0.000001
v 1.643466 0.821733 0.821734
v 0.821733 0.977259 -0.821732
v 0.821733 0.977259 0.000001
v 0.821732 0.977259 0.821734
v 0.000000 0.977259 -0.821733
v -0.000000 0.977259 0.000000
v -0.000001 0.977259 0.821733
v -0.821733 0.977259 -0.821733
v -0.821733 0.977259 0.000000
v -0.821734 0.977259 0.821733
v 1.643466 -1.643466 1.643466
v -0.821733 -1.643466 -1.643466
v -1.643465 -1.643466 -1.643467
v -0.821733 -1.643466 1.643466
v -1.643466 -1.643466 1.643466
v -1.643466 -1.643466 -0.821733
v 1.643466 -1.643466 -1.643466
v 0.821733 -1.643466 -1.643466
v 0.000000 -1.643466 -1.643466
v 0.821733 -1.643466 1.643466
v -0.000000 -1.643466 1.643466
v 0.821733 -0.821733 1.643466
v -0.000000 -0.821733 1.643466
v -0.821733 -0.821733 1.643466
v 1.643466 -0.821733 -1.643466
v 1.643466 -0.821733 1.643466
v -1.643466 -0.821733 1.643466
v -1.643466 -0.821733 -1.643466
v 0.821733 -0.821733 -1.643466
v 0.000000 -0.821733 -1.643466
v -0.821733 -0.821733 -1.643466
v -1.643466 -0.821733 -0.821733
v 1.643466 -0.821733 0.821733
v 1.643466 -1.643466 -0.821733
v 1.643466 -1.643466 0.000000
v -1.643466 -1.643466 0.821733
v -1.643466 -1.643466 -0.000000
v -1.643466 -0.821733 0.821733
v -1.643466 -0.821733 -0.000000
v 1.643466 -0.821733 -0.821733
v 1.643466 -0.821733 0.000000
v -0.821732 -1.643466 -2.345594
v -1.643465 -1.643466 -2.345595
v 1.643466 -1.643466 -2.345594
v 0.821733 -1.643466 -2.345594
v 0.000000 -1.643466 -2.345594
v 1.643466 -0.821733 -2.345594
v -1.643465 -0.821733 -2.345594
v 0.821733 -0.821733 -2.345594
v 0.000000 -0.821733 -2.345594
v -0.821732 -0.821733 -2.345594
v -0.821733 -1.643466 2.166039
v -1.643466 -1.643466 2.166039
v 1.643466 -1.643466 2.166040
v 0.821733 -1.643466 2.166039
v -0.000000 -1.643466 2.166039
v 0.821733 -0.821733 2.166040
v -0.000000 -0.821733 2.166039
v -0.821733 -0.821733 2.166039
v 1.643466 -0.821733 2.166040
v -1.643466 -0.821733 2.166039
v 1.643466 -1.643466 0.821733
v 1.643466 -1.643466 1.643466
v 1.643466 -1.643466 -1.643466
v 1.643466 -0.821733 -1.643466
v 1.643466 -0.821733 1.643466
v 1.643466 -0.821733 0.821733
v 1.643466 -1.643466 -0.821733
v 1.643466 -1.643466 0.000000
v 1.643466 -0.821733 -0.821733
v 1.643466 -0.821733 0.000000
v -0.821733 -1.643466 2.166039
v -1.643466 -1.643466 2.166039
v 1.643466 -1.643466 2.166040
v 0.821733 -1.643466 2.166039
v -0.000000 -1.643466 2.166039
v 0.821733 -0.821733 2.166040
v -0.000000 -0.821733 2.166039
v -0.821733 -0.821733 2.166039
v 1.643466 -0.821733 2.166040
v -1.643466 -0.821733 2.166039
v 2.202600 -1.643466 0.821733
v 2.202600 -1.643466 1.643466
v 2.202600 -1.643466 -1.643466
v 2.202600 -0.821733 -1.643466
v 2.202600 -0.821733 1.643466
v 2.202600 -0.821733 0.821733
v 2.202600 -1.643466 -0.821733
v 2.202600 -1.643466 0.000000
v 2.202600 -0.821733 -0.821733
v 2.202600 -0.821733 0.000000
v -2.269878 -1.643466 -0.821734
v -2.269878 -1.643466 -1.643467
v -2.269879 -1.643466 1.643466
v -2.269879 -0.821733 1.643465
v -2.269878 -0.821733 -1.643467
v -2.269878 -0.821733 -0.821734
v -2.269879 -1.643466 0.821732
v -2.269878 -1.643466 -0.000001
v -2.269879 -0.821733 0.821732
v -2.269879 -0.821733 -0.000001
v -2.396154 -0.000000 0.821732
v -2.396154 -0.000000 -0.000000
v -2.396154 -0.000000 -0.821733
v -2.396154 0.821733 0.821732
v -2.396154 0.821733 -0.000000
v -2.396154 0.821733 -0.821733
v 0.821733 -0.000000 -1.444339
v 0.821733 0.821733 -1.444338
v 0.000000 -0.000000 -1.444339
v 0.000000 0.821733 -1.444339
v -0.821733 -0.000000 -1.444339
v -0.821733 0.821733 -1.444339
v 1.643466 1.643466 -0.821732
v 1.643466 1.643466 0.000001
v 0.821733 1.643466 -0.821732
v 0.821733 1.643466 0.000001
v 2.590558 0.000000 1.643467
v 2.590558 0.821733 1.643467
v 2.590558 0.000000 0.821734
v 2.590558 0.821733 0.821734
v -0.000001 0.821733 1.395389
v -0.000000 0.000000 1.395389
v -0.821734 0.821733 1.395389
v -0.821733 0.000000 1.395389
v 0.000000 2.214938 -1.643466
v -0.821733 2.214938 -1.643466
v 0.000000 2.214938 -0.821733
v -0.821733 2.214938 -0.821733
vt 0.000000 0.000000
vt 1.000000 0.000000
vt 1.000000 1.000000
vt 0.000000 1.000000
vn 0.000000 -1.000000 0.000000
vn 0.000000 1.000000 0.000000
vn 1.000000 0.000000 0.000000
vn -0.000000 -0.000000 1.000000
vn -1.000000 -0.000000 -0.000000
vn 0.000000 0.000000 -1.000000
usemtl Material
s off
f 78/1/1 14/2/1 3/3/1 54/4/1
f 71/1/2 60/2/2 7/3/2 20/4/2
f 98/1/3 59/2/3 6/3/3 26/4/3
f 48/1/4 20/2/4 7/3/4 29/4/4
f 89/1/5 62/2/5 8/3/5 32/4/5
f 91/1/4 92/2/4 130/3/4 138/4/4
f 13/1/4 12/2/4 117/3/4 118/4/4
f 33/1/4 21/2/4 122/3/4 126/4/4
f 51/1/4 1/2/4 114/3/4 131/4/4
f 26/1/4 6/2/4 18/3/4 42/4/4
f 42/1/4 18/2/4 19/3/4 45/4/4
f 45/1/4 19/2/4 20/3/4 48/4/4
f 59/1/2 65/2/2 18/3/2 6/4/2
f 65/1/2 68/2/2 19/3/2 18/4/2
f 68/1/2 71/2/2 20/3/2 19/4/2
f 53/1/1 2/2/1 12/3/1 72/4/1
f 72/1/1 12/2/1 13/3/1 75/4/1
f 75/1/1 13/2/1 14/3/1 78/4/1
f 44/1/4 47/2/4 120/3/4 119/4/4
f 47/1/4 46/2/4 49/3/4 50/4/4
f 46/1/5 45/2/5 219/3/5 220/4/5
f 90/1/4 91/2/4 138/3/4 137/4/4
f 44/1/4 43/2/4 46/3/4 47/4/4
f 43/1/4 42/2/4 45/3/4 46/4/4
f 12/1/4 2/2/4 108/3/4 117/4/4
f 24/1/4 25/2/4 43/3/4 44/4/4
f 25/1/4 26/2/4 42/3/4 43/4/4
f 16/1/6 38/2/6 41/3/6 17/4/6
f 34/1/2 37/2/2 207/3/2 205/4/2
f 37/1/6 36/2/6 39/3/6 40/4/6
f 15/1/6 35/2/6 38/3/6 16/4/6
f 35/1/5 34/2/5 205/3/5 206/4/5
f 34/1/6 33/2/6 36/3/6 37/4/6
f 5/1/6 23/2/6 35/3/6 15/4/6
f 23/1/6 22/2/6 34/3/6 35/4/6
f 22/1/6 21/2/6 33/3/6 34/4/6
f 17/1/6 41/2/6 32/3/6 8/4/6
f 41/1/6 40/2/6 31/3/6 32/4/6
f 40/1/6 39/2/6 30/3/6 31/4/6
f 11/1/4 4/2/4 110/3/4 109/4/4
f 83/1/5 86/2/5 31/3/5 30/4/5
f 86/1/5 89/2/5 32/3/5 31/4/5
f 21/1/4 90/2/4 137/3/4 122/4/4
f 50/1/4 49/2/4 28/3/4 27/4/4
f 49/1/4 48/2/4 29/3/4 28/4/4
f 10/1/4 11/2/4 109/3/4 116/4/4
f 92/1/3 95/2/3 25/3/3 24/4/3
f 26/1/4 25/2/4 215/3/4 216/4/4
f 22/1/3 23/2/3 96/3/3 93/4/3
f 93/1/3 96/2/3 97/3/3 94/4/3
f 94/1/3 97/2/3 98/3/3 95/4/3
f 21/1/3 22/2/3 93/3/3 90/4/3
f 90/1/3 93/2/3 94/3/3 91/4/3
f 91/1/3 94/2/3 95/3/3 92/4/3
f 2/1/4 53/2/4 67/3/4 108/4/4
f 9/1/4 10/2/4 116/3/4 115/4/4
f 36/1/4 33/2/4 126/3/4 127/4/4
f 28/1/5 29/2/5 87/3/5 84/4/5
f 85/1/1 84/2/1 199/3/1 200/4/1
f 88/1/2 89/2/2 204/3/2 203/4/2
f 27/1/5 28/2/5 84/3/5 81/4/5
f 81/1/5 84/2/5 85/3/5 82/4/5
f 82/1/5 85/2/5 86/3/5 83/4/5
f 92/1/4 24/2/4 123/3/4 130/4/4
f 47/1/4 50/2/4 121/3/4 120/4/4
f 1/1/4 9/2/4 115/3/4 114/4/4
f 10/1/1 77/2/1 80/3/1 11/4/1
f 77/1/1 76/2/1 79/3/1 80/4/1
f 76/1/1 75/2/1 78/3/1 79/4/1
f 9/1/1 74/2/1 77/3/1 10/4/1
f 74/1/1 73/2/1 76/3/1 77/4/1
f 73/1/1 72/2/1 75/3/1 76/4/1
f 1/1/1 51/2/1 74/3/1 9/4/1
f 51/1/1 52/2/1 73/3/1 74/4/1
f 52/1/1 53/2/1 72/3/1 73/4/1
f 69/1/4 66/2/4 225/3/4 226/4/4
f 68/1/6 65/2/6 101/3/6 104/4/6
f 70/1/3 71/2/3 107/3/3 106/4/3
f 15/1/2 16/2/2 66/3/2 63/4/2
f 66/1/4 69/2/4 105/3/4 102/4/4
f 71/1/6 68/2/6 104/3/6 107/4/6
f 5/1/2 15/2/2 63/3/2 57/4/2
f 58/1/4 57/2/4 211/3/4 212/4/4
f 58/1/2 64/2/2 65/3/2 59/4/2
f 29/1/5 7/2/5 60/3/5 87/4/5
f 87/1/5 60/2/5 61/3/5 88/4/5
f 88/1/5 61/2/5 62/3/5 89/4/5
f 23/1/3 5/2/3 57/3/3 96/4/3
f 96/1/3 57/2/3 58/3/3 97/4/3
f 97/1/3 58/2/3 59/3/3 98/4/3
f 17/1/2 8/2/2 62/3/2 69/4/2
f 69/1/2 62/2/2 61/3/2 70/4/2
f 70/1/2 61/2/2 60/3/2 71/4/2
f 11/1/1 80/2/1 56/3/1 4/4/1
f 80/1/1 79/2/1 55/3/1 56/4/1
f 79/1/1 78/2/1 54/3/1 55/4/1
f 102/1/2 105/2/2 106/3/2 103/4/2
f 103/1/2 106/2/2 107/3/2 104/4/2
f 99/1/2 102/2/2 103/3/2 100/4/2
f 100/1/2 103/2/2 104/3/2 101/4/2
f 65/1/5 64/2/5 100/3/5 101/4/5
f 63/1/4 66/2/4 102/3/4 99/4/4
f 69/1/3 70/2/3 106/3/3 105/4/3
f 64/1/5 63/2/5 99/3/5 100/4/5
f 126/1/2 122/2/2 144/3/2 146/4/2
f 109/1/1 110/2/1 140/3/1 139/4/1
f 114/1/1 115/2/1 142/3/1 141/4/1
f 127/1/2 126/2/2 146/3/2 147/4/2
f 119/1/2 120/2/2 155/3/2 154/4/2
f 108/1/3 123/2/3 157/3/3 151/4/3
f 117/1/1 108/2/1 151/3/1 152/4/1
f 134/1/1 133/2/1 195/3/1 196/4/1
f 120/1/2 121/2/2 156/3/2 155/4/2
f 123/1/4 108/2/4 160/3/4 163/4/4
f 157/1/4 154/2/4 174/3/4 177/4/4
f 114/1/4 122/2/4 162/3/4 161/4/4
f 149/1/4 153/2/4 173/3/4 169/4/4
f 129/1/2 125/2/2 193/3/2 194/4/2
f 110/1/1 113/2/1 189/3/1 190/4/1
f 135/1/2 136/2/2 198/3/2 197/4/2
f 3/1/4 14/2/4 111/3/4 112/4/4
f 52/1/4 51/2/4 131/3/4 132/4/4
f 14/1/4 13/2/4 118/3/4 111/4/4
f 53/1/4 52/2/4 132/3/4 67/4/4
f 24/1/4 44/2/4 119/3/4 123/4/4
f 4/1/4 56/2/4 113/3/4 110/4/4
f 54/1/4 3/2/4 112/3/4 133/4/4
f 27/1/4 81/2/4 135/3/4 124/4/4
f 30/1/4 39/2/4 128/3/4 125/4/4
f 55/1/4 54/2/4 133/3/4 134/4/4
f 81/1/4 82/2/4 136/3/4 135/4/4
f 83/1/4 30/2/4 125/3/4 129/4/4
f 56/1/4 55/2/4 134/3/4 113/4/4
f 82/1/4 83/2/4 129/3/4 136/4/4
f 50/1/4 27/2/4 124/3/4 121/4/4
f 39/1/4 36/2/4 127/3/4 128/4/4
f 148/1/6 139/2/6 140/3/6 145/4/6
f 144/1/6 141/2/6 142/3/6 146/4/6
f 146/1/6 142/2/6 143/3/6 147/4/6
f 147/1/6 143/2/6 139/3/6 148/4/6
f 115/1/1 116/2/1 143/3/1 142/4/1
f 125/1/2 128/2/2 148/3/2 145/4/2
f 110/1/5 125/2/5 145/3/5 140/4/5
f 116/1/1 109/2/1 139/3/1 143/4/1
f 128/1/2 127/2/2 147/3/2 148/4/2
f 122/1/3 114/2/3 141/3/3 144/4/3
f 154/1/4 155/2/4 175/3/4 174/4/4
f 153/1/4 152/2/4 172/3/4 173/4/4
f 155/1/4 156/2/4 176/3/4 175/4/4
f 138/1/4 130/2/4 164/3/4 168/4/4
f 121/1/2 124/2/2 158/3/2 156/4/2
f 118/1/1 117/2/1 152/3/1 153/4/1
f 124/1/5 112/2/5 150/3/5 158/4/5
f 123/1/2 119/2/2 154/3/2 157/4/2
f 112/1/1 111/2/1 149/3/1 150/4/1
f 111/1/1 118/2/1 153/3/1 149/4/1
f 163/1/4 160/2/4 180/3/4 183/4/4
f 166/1/1 165/2/1 185/3/1 186/4/1
f 167/1/2 168/2/2 188/3/2 187/4/2
f 161/1/6 162/2/6 182/3/6 181/4/6
f 173/1/4 175/2/4 176/3/4 169/4/4
f 172/1/4 174/2/4 175/3/4 173/4/4
f 171/1/4 177/2/4 174/3/4 172/4/4
f 169/1/4 176/2/4 178/3/4 170/4/4
f 130/1/4 123/2/4 163/3/4 164/4/4
f 156/1/4 158/2/4 178/3/4 176/4/4
f 108/1/4 67/2/4 159/3/4 160/4/4
f 131/1/4 114/2/4 161/3/4 165/4/4
f 132/1/4 131/2/4 165/3/4 166/4/4
f 122/1/4 137/2/4 167/3/4 162/4/4
f 151/1/4 157/2/4 177/3/4 171/4/4
f 67/1/4 132/2/4 166/3/4 159/4/4
f 150/1/4 149/2/4 169/3/4 170/4/4
f 137/1/4 138/2/4 168/3/4 167/4/4
f 158/1/4 150/2/4 170/3/4 178/4/4
f 152/1/4 151/2/4 171/3/4 172/4/4
f 179/1/3 184/2/3 183/3/3 180/4/3
f 181/1/3 182/2/3 187/3/3 185/4/3
f 185/1/3 187/2/3 188/3/3 186/4/3
f 186/1/3 188/2/3 184/3/3 179/4/3
f 168/1/2 164/2/2 184/3/2 188/4/2
f 159/1/1 166/2/1 186/3/1 179/4/1
f 164/1/2 163/2/2 183/3/2 184/4/2
f 160/1/1 159/2/1 179/3/1 180/4/1
f 162/1/2 167/2/2 187/3/2 182/4/2
f 165/1/1 161/2/1 181/3/1 185/4/1
f 189/1/5 194/2/5 193/3/5 190/4/5
f 191/1/5 192/2/5 197/3/5 195/4/5
f 195/1/5 197/2/5 198/3/5 196/4/5
f 196/1/5 198/2/5 194/3/5 189/4/5
f 136/1/2 129/2/2 194/3/2 198/4/2
f 113/1/1 134/2/1 196/3/1 189/4/1
f 112/1/4 124/2/4 192/3/4 191/4/4
f 124/1/2 135/2/2 197/3/2 192/4/2
f 133/1/1 112/2/1 191/3/1 195/4/1
f 125/1/6 110/2/6 190/3/6 193/4/6
f 199/1/5 202/2/5 203/3/5 200/4/5
f 200/1/5 203/2/5 204/3/5 201/4/5
f 89/1/6 86/2/6 201/3/6 204/4/6
f 87/1/2 88/2/2 203/3/2 202/4/2
f 84/1/4 87/2/4 202/3/4 199/4/4
f 86/1/1 85/2/1 200/3/1 201/4/1
f 208/1/6 207/2/6 209/3/6 210/4/6
f 206/1/6 205/2/6 207/3/6 208/4/6
f 41/1/1 38/2/1 208/3/1 210/4/1
f 38/1/1 35/2/1 206/3/1 208/4/1
f 40/1/3 41/2/3 210/3/3 209/4/3
f 37/1/2 40/2/2 209/3/2 207/4/2
f 211/1/2 213/2/2 214/3/2 212/4/2
f 64/1/4 58/2/4 212/3/4 214/4/4
f 57/1/4 63/2/4 213/3/4 211/4/4
f 63/1/4 64/2/4 214/3/4 213/4/4
f 217/1/3 218/2/3 216/3/3 215/4/3
f 25/1/1 95/2/1 217/3/1 215/4/1
f 98/1/2 26/2/2 216/3/2 218/4/2
f 95/1/6 98/2/6 218/3/6 217/4/6
f 220/1/4 219/2/4 221/3/4 222/4/4
f 45/1/1 48/2/1 221/3/1 219/4/1
f 48/1/3 49/2/3 222/3/3 221/4/3
f 49/1/2 46/2/2 220/3/2 222/4/2
f 223/1/2 224/2/2 226/3/2 225/4/2
f 17/1/5 69/2/5 226/3/5 224/4/5
f 16/1/6 17/2/6 224/3/6 223/4/6
f 66/1/3 16/2/3 223/3/3 225/4/3
