P2
5 5
255
127 138 117 122 74 120 134 45 78 42 123 92 114 83 8 143 165 90 106 73 145 67 
99 175 137 
