P2
4 4
255
0 80 189 255
0 80 189 255
0 80 189 255
0 80 189 255
