P2
4 4
255
10 100 200 250
10 100 200 250
10 100 200 250
10 100 200 250
